# xmcd CD database file
#
# Track frame offsets:
#	150
#	21509
#	34633
#	49248
#	68949
#	91477
#	123638
#
# Disc length: 2328 seconds
#
# Revision: 0
# Processed by: cddbd v1.5.1PL0 Copyright (c) Steve Scherf et al.
# Submitted via: CDex 1.51
#
DISCID=61091607
DTITLE=Bill Wyman and the Rhythm Kings - AVO Session Basel 2004
DYEAR=2004
DGENRE=Blues
TTITLE0=Bill Wyman and The Rhythm Kings - C'est La Vie
TTITLE1=Bill Wyman and The Rhythm Kings - Race With The Devil
TTITLE2=Bill Wyman and The Rhythm Kings - Six Days On The Road
TTITLE3=Bill Wyman and The Rhythm Kings - Drown In My Own Tears
TTITLE4=Bill Wyman and The Rhythm Kings - Flatfoot Sam
TTITLE5=Bill Wyman and The Rhythm Kings - I Put A Spell On You
TTITLE6=Bill Wyman and The Rhythm Kings - Tell You  A Secret
EXTD=YEAR: 2004
EXTT0=
EXTT1=
EXTT2=
EXTT3=
EXTT4=
EXTT5=
EXTT6=
PLAYORDER=
